<svg width="25" height="25" viewBox="0 0 25 25" fill="none" xmlns="http://www.w3.org/2000/svg">
<g clip-path="url(#clip0_221_326)">
<path d="M17.5725 0.5H13.5278V16.8478C13.5278 18.7957 11.9722 20.3957 10.0363 20.3957C8.10034 20.3957 6.54469 18.7957 6.54469 16.8478C6.54469 14.9348 8.06577 13.3695 9.93257 13.3V9.19567C5.81872 9.2652 2.5 12.6391 2.5 16.8478C2.5 21.0913 5.88786 24.5 10.0708 24.5C14.2538 24.5 17.6416 21.0565 17.6416 16.8478V8.4652C19.1627 9.57827 21.0295 10.2391 23 10.2739V6.16957C19.9579 6.06522 17.5725 3.56087 17.5725 0.5Z" fill="white"/>
</g>
<defs>
<clipPath id="clip0_221_326">
<rect width="24" height="24" fill="white" transform="translate(0.5 0.5)"/>
</clipPath>
</defs>
</svg>
