<svg width="16" height="17" viewBox="0 0 16 17" fill="none" xmlns="http://www.w3.org/2000/svg">
<path d="M8.00065 14.9896C6.82287 14.9896 5.86176 14.8035 5.11732 14.4312C4.37287 14.059 4.00065 13.5785 4.00065 12.9896C4.00065 12.7229 4.08121 12.4757 4.24232 12.2479C4.40343 12.0201 4.62843 11.8229 4.91732 11.6562L5.96732 12.6396C5.86732 12.684 5.75898 12.734 5.64232 12.7896C5.52565 12.8451 5.43398 12.9118 5.36732 12.9896C5.51176 13.1674 5.8451 13.3229 6.36732 13.4562C6.88954 13.5896 7.43398 13.6562 8.00065 13.6562C8.56732 13.6562 9.11454 13.5896 9.64232 13.4562C10.1701 13.3229 10.5062 13.1674 10.6507 12.9896C10.5729 12.9007 10.4729 12.8285 10.3507 12.7729C10.2284 12.7174 10.1118 12.6674 10.0007 12.6229L11.034 11.6229C11.3451 11.8007 11.584 12.0035 11.7507 12.2312C11.9173 12.459 12.0007 12.7118 12.0007 12.9896C12.0007 13.5785 11.6284 14.059 10.884 14.4312C10.1395 14.8035 9.17843 14.9896 8.00065 14.9896ZM8.01732 11.3229C9.11732 10.5118 9.9451 9.69792 10.5007 8.88125C11.0562 8.06458 11.334 7.24514 11.334 6.42292C11.334 5.28958 10.9729 4.43403 10.2507 3.85625C9.52843 3.27847 8.77843 2.98958 8.00065 2.98958C7.22287 2.98958 6.47287 3.27847 5.75065 3.85625C5.02843 4.43403 4.66732 5.28958 4.66732 6.42292C4.66732 7.16736 4.93954 7.94236 5.48398 8.74792C6.02843 9.55347 6.87287 10.4118 8.01732 11.3229ZM8.00065 12.9896C6.43398 11.834 5.26454 10.7118 4.49232 9.62292C3.7201 8.53403 3.33398 7.46736 3.33398 6.42292C3.33398 5.63403 3.47565 4.94236 3.75898 4.34792C4.04232 3.75347 4.40621 3.25625 4.85065 2.85625C5.2951 2.45625 5.7951 2.15625 6.35065 1.95625C6.90621 1.75625 7.45621 1.65625 8.00065 1.65625C8.54509 1.65625 9.0951 1.75625 9.65065 1.95625C10.2062 2.15625 10.7062 2.45625 11.1507 2.85625C11.5951 3.25625 11.959 3.75347 12.2423 4.34792C12.5257 4.94236 12.6673 5.63403 12.6673 6.42292C12.6673 7.46736 12.2812 8.53403 11.509 9.62292C10.7368 10.7118 9.56732 11.834 8.00065 12.9896ZM8.00065 7.65625C8.36732 7.65625 8.68121 7.52569 8.94232 7.26458C9.20343 7.00347 9.33398 6.68958 9.33398 6.32292C9.33398 5.95625 9.20343 5.64236 8.94232 5.38125C8.68121 5.12014 8.36732 4.98958 8.00065 4.98958C7.63398 4.98958 7.3201 5.12014 7.05898 5.38125C6.79787 5.64236 6.66732 5.95625 6.66732 6.32292C6.66732 6.68958 6.79787 7.00347 7.05898 7.26458C7.3201 7.52569 7.63398 7.65625 8.00065 7.65625Z" fill="black"/>
</svg>
