<svg width="16" height="17" viewBox="0 0 16 17" fill="none" xmlns="http://www.w3.org/2000/svg">
<path d="M9.66667 12.3229C9.2 12.3229 8.80556 12.1618 8.48333 11.8396C8.16111 11.5174 8 11.1229 8 10.6562C8 10.1896 8.16111 9.79514 8.48333 9.47292C8.80556 9.15069 9.2 8.98958 9.66667 8.98958C10.1333 8.98958 10.5278 9.15069 10.85 9.47292C11.1722 9.79514 11.3333 10.1896 11.3333 10.6562C11.3333 11.1229 11.1722 11.5174 10.85 11.8396C10.5278 12.1618 10.1333 12.3229 9.66667 12.3229ZM3.33333 14.9896C2.96667 14.9896 2.65278 14.859 2.39167 14.5979C2.13056 14.3368 2 14.0229 2 13.6562V4.32292C2 3.95625 2.13056 3.64236 2.39167 3.38125C2.65278 3.12014 2.96667 2.98958 3.33333 2.98958H4V1.65625H5.33333V2.98958H10.6667V1.65625H12V2.98958H12.6667C13.0333 2.98958 13.3472 3.12014 13.6083 3.38125C13.8694 3.64236 14 3.95625 14 4.32292V13.6562C14 14.0229 13.8694 14.3368 13.6083 14.5979C13.3472 14.859 13.0333 14.9896 12.6667 14.9896H3.33333ZM3.33333 13.6562H12.6667V6.98958H3.33333V13.6562ZM3.33333 5.65625H12.6667V4.32292H3.33333V5.65625Z" fill="black"/>
</svg>
