<svg width="17" height="16" viewBox="0 0 17 16" fill="none" xmlns="http://www.w3.org/2000/svg">
<path d="M8.50065 14.6666C7.32287 14.6666 6.36176 14.4805 5.61732 14.1083C4.87287 13.7361 4.50065 13.2555 4.50065 12.6666C4.50065 12.4 4.58121 12.1528 4.74232 11.925C4.90343 11.6972 5.12843 11.5 5.41732 11.3333L6.46732 12.3166C6.36732 12.3611 6.25898 12.4111 6.14232 12.4666C6.02565 12.5222 5.93398 12.5889 5.86732 12.6666C6.01176 12.8444 6.3451 13 6.86732 13.1333C7.38954 13.2666 7.93398 13.3333 8.50065 13.3333C9.06732 13.3333 9.61454 13.2666 10.1423 13.1333C10.6701 13 11.0062 12.8444 11.1507 12.6666C11.0729 12.5778 10.9729 12.5055 10.8507 12.45C10.7284 12.3944 10.6118 12.3444 10.5007 12.3L11.534 11.3C11.8451 11.4778 12.084 11.6805 12.2507 11.9083C12.4173 12.1361 12.5007 12.3889 12.5007 12.6666C12.5007 13.2555 12.1284 13.7361 11.384 14.1083C10.6395 14.4805 9.67843 14.6666 8.50065 14.6666ZM8.51732 11C9.61732 10.1889 10.4451 9.37498 11.0007 8.55831C11.5562 7.74165 11.834 6.9222 11.834 6.09998C11.834 4.96665 11.4729 4.11109 10.7507 3.53331C10.0284 2.95554 9.27843 2.66665 8.50065 2.66665C7.72287 2.66665 6.97287 2.95554 6.25065 3.53331C5.52843 4.11109 5.16732 4.96665 5.16732 6.09998C5.16732 6.84442 5.43954 7.61942 5.98398 8.42498C6.52843 9.23053 7.37287 10.0889 8.51732 11ZM8.50065 12.6666C6.93398 11.5111 5.76454 10.3889 4.99232 9.29998C4.2201 8.21109 3.83398 7.14442 3.83398 6.09998C3.83398 5.31109 3.97565 4.61942 4.25898 4.02498C4.54232 3.43054 4.90621 2.93331 5.35065 2.53331C5.7951 2.13331 6.2951 1.83331 6.85065 1.63331C7.40621 1.43331 7.95621 1.33331 8.50065 1.33331C9.04509 1.33331 9.5951 1.43331 10.1507 1.63331C10.7062 1.83331 11.2062 2.13331 11.6507 2.53331C12.0951 2.93331 12.459 3.43054 12.7423 4.02498C13.0257 4.61942 13.1673 5.31109 13.1673 6.09998C13.1673 7.14442 12.7812 8.21109 12.009 9.29998C11.2368 10.3889 10.0673 11.5111 8.50065 12.6666ZM8.50065 7.33331C8.86732 7.33331 9.18121 7.20276 9.44232 6.94165C9.70343 6.68053 9.83398 6.36665 9.83398 5.99998C9.83398 5.63331 9.70343 5.31942 9.44232 5.05831C9.18121 4.7972 8.86732 4.66665 8.50065 4.66665C8.13398 4.66665 7.8201 4.7972 7.55898 5.05831C7.29787 5.31942 7.16732 5.63331 7.16732 5.99998C7.16732 6.36665 7.29787 6.68053 7.55898 6.94165C7.8201 7.20276 8.13398 7.33331 8.50065 7.33331Z" fill="white"/>
</svg>
