<svg width="17" height="16" viewBox="0 0 17 16" fill="none" xmlns="http://www.w3.org/2000/svg">
<path d="M3.16732 13.3334C2.80065 13.3334 2.48676 13.2028 2.22565 12.9417C1.96454 12.6806 1.83398 12.3667 1.83398 12V4.00002C1.83398 3.63335 1.96454 3.31946 2.22565 3.05835C2.48676 2.79724 2.80065 2.66669 3.16732 2.66669H13.834C14.2007 2.66669 14.5145 2.79724 14.7757 3.05835C15.0368 3.31946 15.1673 3.63335 15.1673 4.00002V12C15.1673 12.3667 15.0368 12.6806 14.7757 12.9417C14.5145 13.2028 14.2007 13.3334 13.834 13.3334H3.16732ZM8.50065 8.66669L3.16732 5.33335V12H13.834V5.33335L8.50065 8.66669ZM8.50065 7.33335L13.834 4.00002H3.16732L8.50065 7.33335ZM3.16732 5.33335V4.00002V12V5.33335Z" fill="white"/>
</svg>
