<svg width="16" height="17" viewBox="0 0 16 17" fill="none" xmlns="http://www.w3.org/2000/svg">
<path d="M10.2007 11.4562L11.134 10.5229L8.66732 8.05625V4.98958H7.33398V8.58958L10.2007 11.4562ZM8.00065 14.9896C7.07843 14.9896 6.21176 14.8146 5.40065 14.4646C4.58954 14.1146 3.88398 13.6396 3.28398 13.0396C2.68398 12.4396 2.20898 11.734 1.85898 10.9229C1.50898 10.1118 1.33398 9.24514 1.33398 8.32292C1.33398 7.40069 1.50898 6.53403 1.85898 5.72292C2.20898 4.91181 2.68398 4.20625 3.28398 3.60625C3.88398 3.00625 4.58954 2.53125 5.40065 2.18125C6.21176 1.83125 7.07843 1.65625 8.00065 1.65625C8.92287 1.65625 9.78954 1.83125 10.6007 2.18125C11.4118 2.53125 12.1173 3.00625 12.7173 3.60625C13.3173 4.20625 13.7923 4.91181 14.1423 5.72292C14.4923 6.53403 14.6673 7.40069 14.6673 8.32292C14.6673 9.24514 14.4923 10.1118 14.1423 10.9229C13.7923 11.734 13.3173 12.4396 12.7173 13.0396C12.1173 13.6396 11.4118 14.1146 10.6007 14.4646C9.78954 14.8146 8.92287 14.9896 8.00065 14.9896ZM8.00065 13.6562C9.47843 13.6562 10.7368 13.1368 11.7757 12.0979C12.8145 11.059 13.334 9.80069 13.334 8.32292C13.334 6.84514 12.8145 5.58681 11.7757 4.54792C10.7368 3.50903 9.47843 2.98958 8.00065 2.98958C6.52287 2.98958 5.26454 3.50903 4.22565 4.54792C3.18676 5.58681 2.66732 6.84514 2.66732 8.32292C2.66732 9.80069 3.18676 11.059 4.22565 12.0979C5.26454 13.1368 6.52287 13.6562 8.00065 13.6562Z" fill="black"/>
</svg>
